<html>
<head>
<meta charset="UTF-8">
<meta name="viewport" content="width=device-width, initial-scale=1.0"/>

<style>
.comment
{
    padding-left: 20px;
    margin-top: 4px;
    margin-right: 4px;
    margin-bottom: 4px;
    border: 2px #000 solid;
}
.submission
{
    border: 4px #00f solid;
    padding-left: 20px;
}
.hidden
{
    display: none;
}
</style>
</head>
<body><div class="submission" id="t3_7bi1sd">
    <p class="userinfo">
        <a href="https://www.reddit.com/u/wildwildthoughts">wildwildthoughts</a>
        <span class="score"> | 13 points</span>
        <span class="timestamp"> | Nov 08 2017 01:47:30</span>
    </p>
    <strong>[MUSIC] Cigarettes After Sex - Cigarettes After Sex (2017) [Album.FLAC.Tracklist in comments]</strong>
    <p><p><strong>Cigarettes After Sex - Cigarettes After Sex (2017)</strong></p>
<p>.
.
.</p>
<p><strong><em>Tracklist:</em></strong></p>
<ul>
<li>01 - K..flac</li>
<li>02 - Each Time You Fall In Love.flac</li>
<li>03 - Sunsetz.flac</li>
<li>04 - Apocalypse.flac</li>
<li>05 - Flash.flac</li>
<li>06 - Sweet.flac</li>
<li>07 - Opera House.flac</li>
<li>08 - Truly.flac</li>
<li>09 - John Wayne.flac</li>
<li>10 - Young &amp; Dumb.flac</li>
</ul>
<p>File Info:</p>
<blockquote>
<p>Used output format              : User Defined Encoder
Selected bitrate                : 1024 kBit/s
Quality                         : High
Add ID3 tag                     : No
Command line compressor         : C:\Program Files\FLAC\flac.exe
Additional command line options : -8 -V -T "ARTIST=%artist%" -T "TITLE=%title%" -T "ALBUM=%albumtitle%" -T "DATE=%year%" -T "TRACKNUMBER=%tracknr%" -T "GENRE=%genre%" -T "PERFORMER=%albuminterpret%" -T "COMPOSER=%composer%" %haslyrics%--tag-from-file=LYRICS="%lyricsfile%"%haslyrics% -T "ALBUMARTIST=%albumartist%" -T "DISCNUMBER=%cdnumber%" -T "TOTALDISCS=%totalcds%" -T "TOTALTRACKS=%numtracks%" -T "COMMENT=%comment%" %source% -o %dest%</p>
<p>TOC of the extracted CD</p>
<pre><code> Track |   Start  |  Length  | Start sector | End sector 
---------------------------------------------------------
    1  |  0:00.00 |  5:19.42 |         0    |    23966   
    2  |  5:19.42 |  4:50.12 |     23967    |    45728   
    3  | 10:09.54 |  3:34.51 |     45729    |    61829   
    4  | 13:44.30 |  4:50.11 |     61830    |    83590   
    5  | 18:34.41 |  4:34.08 |     83591    |   104148   
    6  | 23:08.49 |  4:51.48 |    104149    |   126021   
    7  | 28:00.22 |  6:04.51 |    126022    |   153372   
    8  | 34:04.73 |  4:03.48 |    153373    |   171645   
    9  | 38:08.46 |  4:18.01 |    171646    |   190996   
   10  | 42:26.47 |  4:33.32 |    190997    |   211503
</code></pre>
<p>Track  1</p>
<pre><code> Filename C:\EACrips\Cigarettes After Sex - Cigarettes After Sex\01 - K..wav

 Pre-gap length  0:00:02.00

 Peak level 99.0 %
 Extraction speed 1.1 X
 Track quality 100.0 %
 Test CRC 01ABC993
 Copy CRC 01ABC993
 Track not present in AccurateRip database
 Copy OK
</code></pre>
<p>Track  2</p>
<pre><code> Filename C:\EACrips\Cigarettes After Sex - Cigarettes After Sex\02 - Each Time You Fall In Love.wav

 Peak level 99.0 %
 Extraction speed 0.9 X
 Track quality 99.9 %
 Test CRC 1CE514EA
 Copy CRC 1CE514EA
 Track not present in AccurateRip database
 Copy OK
</code></pre>
<p>Track  3</p>
<pre><code> Filename C:\EACrips\Cigarettes After Sex - Cigarettes After Sex\03 - Sunsetz.wav

 Peak level 99.0 %
 Extraction speed 1.0 X
 Track quality 100.0 %
 Test CRC 67EE0D9C
 Copy CRC 67EE0D9C
 Track not present in AccurateRip database
 Copy OK
</code></pre>
<p>Track  4</p>
<pre><code> Filename C:\EACrips\Cigarettes After Sex - Cigarettes After Sex\04 - Apocalypse.wav

 Peak level 99.0 %
 Extraction speed 0.9 X
 Track quality 99.9 %
 Test CRC D87ADEED
 Copy CRC D87ADEED
 Track not present in AccurateRip database
 Copy OK
</code></pre>
<p>Track  5</p>
<pre><code> Filename C:\EACrips\Cigarettes After Sex - Cigarettes After Sex\05 - Flash.wav

 Pre-gap length  0:00:01.01

 Peak level 99.0 %
 Extraction speed 1.0 X
 Track quality 100.0 %
 Test CRC C04B9A4C
 Copy CRC C04B9A4C
 Track not present in AccurateRip database
 Copy OK
</code></pre>
<p>Track  6</p>
<pre><code> Filename C:\EACrips\Cigarettes After Sex - Cigarettes After Sex\06 - Sweet.wav

 Peak level 99.0 %
 Extraction speed 1.0 X
 Track quality 100.0 %
 Test CRC 40C91B66
 Copy CRC 40C91B66
 Track not present in AccurateRip database
 Copy OK
</code></pre>
<p>Track  7</p>
<pre><code> Filename C:\EACrips\Cigarettes After Sex - Cigarettes After Sex\07 - Opera House.wav

 Pre-gap length  0:00:02.33

 Peak level 99.0 %
 Extraction speed 1.1 X
 Track quality 100.0 %
 Test CRC 1174F37B
 Copy CRC 1174F37B
 Track not present in AccurateRip database
 Copy OK
</code></pre>
<p>Track  8</p>
<pre><code> Filename C:\EACrips\Cigarettes After Sex - Cigarettes After Sex\08 - Truly.wav

 Peak level 99.0 %
 Extraction speed 1.0 X
 Track quality 100.0 %
 Test CRC 19038CC6
 Copy CRC 19038CC6
 Track not present in AccurateRip database
 Copy OK
</code></pre>
<p>Track  9</p>
<pre><code> Filename C:\EACrips\Cigarettes After Sex - Cigarettes After Sex\09 - John Wayne.wav

 Peak level 99.0 %
 Extraction speed 1.0 X
 Track quality 100.0 %
 Test CRC 4F275E45
 Copy CRC 4F275E45
 Track not present in AccurateRip database
 Copy OK
</code></pre>
<p>Track 10</p>
<pre><code> Filename C:\EACrips\Cigarettes After Sex - Cigarettes After Sex\10 - Young &amp; Dumb.wav

 Pre-gap length  0:00:00.82

 Peak level 99.0 %
 Extraction speed 1.0 X
 Track quality 100.0 %
 Test CRC 245FC467
 Copy CRC 245FC467
 Track not present in AccurateRip database
 Copy OK
</code></pre>
<p>None of the tracks are present in the AccurateRip database</p>
<p>No errors occurred</p>
<p>End of status report</p>
<p>---- CUETools DB Plugin V2.1.6</p>
<p>[CTDB TOCID: Ln4ZUFlm9VCpQRa_1xfknLBZTn4-] found
Submit result: Ln4ZUFlm9VCpQRa_1xfknLBZTn4- has been confirmed
Track | CTDB Status
  1   | (4/4) Accurately ripped
  2   | (4/4) Accurately ripped
  3   | (4/4) Accurately ripped
  4   | (4/4) Accurately ripped
  5   | (4/4) Accurately ripped
  6   | (4/4) Accurately ripped
  7   | (4/4) Accurately ripped
  8   | (4/4) Accurately ripped
  9   | (4/4) Accurately ripped
 10   | (4/4) Accurately ripped</p>
<p>==== Log checksum 5437D0C93B4A10BA1392A89806B8B7941314C9F2D6691F638A86C6CC2B8773DD ====
</p>
</blockquote>
<p>.
.
.</p>
<p>Replace 'x' with 'mega'</p>
<p><strong>Link:</strong> https://x.nz/#F!XBZQSAxZ</p>
<p><strong>Key:</strong> !1GSY0Ohs0rz4k7NKY39p-Q</p></p>
    <p class="toolbar">
        <a href="https://www.reddit.com/r/megalinks/comments/7bi1sd">permalink</a>
    </p>
</div>
<div class="comment" id="t1_dpipmc4">
    <p class="userinfo">
        <a
        class="toggle_hide_button"
        href="javascript:void(0)"
        onclick="toggle_collapse(this.parentElement.parentElement)">[-]
        </a>
        <a href="https://www.reddit.com/u/Mr_Zipperface">Mr_Zipperface</a>
        <span class="score"> | 4 points</span>
        <span class="timestamp"> | Nov 08 2017 11:59:34</span>
    </p>
    <div class="collapsible">
        <p>I love this album SO much.
Lovely lovely flac for these lucky people :-)</p>
        <p class="toolbar">
            <a href="https://www.reddit.com/r/megalinks/comments/7bi1sd/_/dpipmc4">permalink</a>
        </p>
        
    </div>
</div>

<div class="comment" id="t1_dpi5eli">
    <p class="userinfo">
        <a
        class="toggle_hide_button"
        href="javascript:void(0)"
        onclick="toggle_collapse(this.parentElement.parentElement)">[-]
        </a>
        <a href="https://www.reddit.com/u/wildwildthoughts">wildwildthoughts</a>
        <span class="score"> | 3 points</span>
        <span class="timestamp"> | Nov 08 2017 01:49:29</span>
    </p>
    <div class="collapsible">
        <p><strong>Bonus MP3 Format for lower bandwidth users:</strong></p>
<ul>
<li><em>Link:</em> https://x.nz/#F!HMB11bCD</li>
<li></li>
<li><em>Key:</em> !6lhInhghAukuDMZRKXfcZg</li>
</ul>
<p>Enjoy!</p>
        <p class="toolbar">
            <a href="https://www.reddit.com/r/megalinks/comments/7bi1sd/_/dpi5eli">permalink</a>
        </p>
        
    </div>
</div>

<div class="comment" id="t1_dpms7qd">
    <p class="userinfo">
        <a
        class="toggle_hide_button"
        href="javascript:void(0)"
        onclick="toggle_collapse(this.parentElement.parentElement)">[-]
        </a>
        <a href="https://www.reddit.com/u/John147GHN">John147GHN</a>
        <span class="score"> | 1 points</span>
        <span class="timestamp"> | Nov 10 2017 18:58:21</span>
    </p>
    <div class="collapsible">
        <p>Holy shit I just found Opera House and then I find your post, you are a GODSEND.</p>
        <p class="toolbar">
            <a href="https://www.reddit.com/r/megalinks/comments/7bi1sd/_/dpms7qd">permalink</a>
        </p>
        
    </div>
</div>

<div class="comment" id="t1_dpms9x9">
    <p class="userinfo">
        <a
        class="toggle_hide_button"
        href="javascript:void(0)"
        onclick="toggle_collapse(this.parentElement.parentElement)">[-]
        </a>
        <a href="https://www.reddit.com/u/John147GHN">John147GHN</a>
        <span class="score"> | 1 points</span>
        <span class="timestamp"> | Nov 10 2017 18:59:26</span>
    </p>
    <div class="collapsible">
        <p>BTW, do you also have their other releases in lossless quality? =D</p>
        <p class="toolbar">
            <a href="https://www.reddit.com/r/megalinks/comments/7bi1sd/_/dpms9x9">permalink</a>
        </p>
        <div class="comment" id="t1_dpnqkif">
    <p class="userinfo">
        <a
        class="toggle_hide_button"
        href="javascript:void(0)"
        onclick="toggle_collapse(this.parentElement.parentElement)">[-]
        </a>
        <a href="https://www.reddit.com/u/wildwildthoughts">wildwildthoughts</a>
        <span class="score"> | 2 points</span>
        <span class="timestamp"> | Nov 11 2017 08:54:05</span>
    </p>
    <div class="collapsible">
        <p>Hey! I can upload the rest of what I have:</p>
<p>Link: https://x.nz/#F!uVoQDZ6L</p>
<p>Key: !-wzPsmbIyOYuziBaYjL9Jw</p>
<p>Enjoy :)</p>
        <p class="toolbar">
            <a href="https://www.reddit.com/r/megalinks/comments/7bi1sd/_/dpnqkif">permalink</a>
        </p>
        <div class="comment" id="t1_dpo4h4x">
    <p class="userinfo">
        <a
        class="toggle_hide_button"
        href="javascript:void(0)"
        onclick="toggle_collapse(this.parentElement.parentElement)">[-]
        </a>
        <a href="https://www.reddit.com/u/John147GHN">John147GHN</a>
        <span class="score"> | 1 points</span>
        <span class="timestamp"> | Nov 11 2017 16:52:02</span>
    </p>
    <div class="collapsible">
        <p>Thank you very much! :'3</p>
        <p class="toolbar">
            <a href="https://www.reddit.com/r/megalinks/comments/7bi1sd/_/dpo4h4x">permalink</a>
        </p>
        
    </div>
</div>
    </div>
</div>
    </div>
</div>
</body>

<script>
function toggle_collapse(comment_div)
{
    var button = comment_div.getElementsByClassName("toggle_hide_button")[0];
    var collapsible = comment_div.getElementsByClassName("collapsible")[0];
    if (collapsible.classList.contains("hidden"))
    {
        collapsible.classList.remove("hidden");
        button.innerText = "[-]";
    }
    else
    {
        collapsible.classList.add("hidden");
        button.innerText = "[+]";
    }
}
</script>
</html>
